<svg xmlns="http://www.w3.org/2000/svg" width="63" height="63" viewBox="0 0 63 63"><g fill="#261300" stroke="#ff7c00" stroke-width="2"><circle cx="31.5" cy="31.5" r="31.5" stroke="none"/><circle cx="31.5" cy="31.5" r="30.5" fill="none"/></g><path d="M21.5,33.575l-1.958,7.434c-.05.2-.124.248-.372.248H15.524c-.248,0-.3-.074-.248-.372l7.037-24.63a8.026,8.026,0,0,0,.248-2.057c0-.173.074-.248.2-.248h5.2c.173,0,.248.05.3.248l7.88,26.736c.05.2,0,.322-.2.322H31.829c-.2,0-.322-.05-.372-.223L29.4,33.575Zm6.888-4.014c-.694-2.75-2.329-8.747-2.949-11.646h-.05c-.52,2.9-1.834,7.805-2.874,11.646Zm11.15-13.777a2.527,2.527,0,1,1,5.055,0,2.368,2.368,0,0,1-2.577,2.527,2.329,2.329,0,0,1-2.478-2.527Zm.3,5.625c0-.2.074-.3.3-.3h3.89c.2,0,.3.074.3.3v19.55c0,.2-.05.3-.3.3H40.179c-.248,0-.322-.124-.322-.322V21.408Z" transform="translate(1.741 4.744)" fill="#ff7c00"/></svg>