<svg xmlns="http://www.w3.org/2000/svg" width="45" height="45" viewBox="0 0 45 45"><g transform="translate(0.5 0.5)"><g transform="translate(0 0)"><circle cx="22" cy="22" r="22" fill="none" stroke="#fff" stroke-width="1"/></g><g transform="translate(8.985 13.956)"><path d="M43.812,39.8c-6.354,0-6.363,6.33-6.363,6.363a5.881,5.881,0,0,0,6.363,6.338s5.669.322,5.669-4.411H46.57s.1,1.782-2.661,1.782A2.691,2.691,0,0,1,41,47h8.58S50.522,39.8,43.812,39.8ZM40.966,44.78a2.957,2.957,0,0,1,2.911-2.548A2.455,2.455,0,0,1,46.4,44.78Zm-7.273-1.629A2.872,2.872,0,0,0,36.216,40c0-2.959-2.064-4.411-4.685-4.411H22.91V52.159h8.62s5.266.162,5.266-4.895C36.8,47.264,37.023,43.151,33.692,43.151ZM26.709,38.53h4.822s1.169,0,1.169,1.726-.686,1.976-1.468,1.976H26.709Zm4.581,10.685H26.709V44.78h4.822s1.75-.016,1.742,2.282C33.273,49,31.975,49.2,31.289,49.215Zm8.959-12.653V38.6h6.839v-2.04Z" transform="translate(-22.91 -35.587)" fill="#fff"/></g></g></svg>