<svg xmlns="http://www.w3.org/2000/svg" width="63" height="63" viewBox="0 0 63 63"><g fill="#563d7c"><path d="M 31.5 62 C 27.38208961486816 62 23.38788032531738 61.19372177124023 19.62833023071289 59.60356903076172 C 15.9965295791626 58.06745147705078 12.73462963104248 55.86814880371094 9.933239936828613 53.0667610168457 C 7.131849765777588 50.2653694152832 4.932549953460693 47.00347137451172 3.396430015563965 43.37166976928711 C 1.806280016899109 39.61212158203125 1 35.6179084777832 1 31.5 C 1 27.38208961486816 1.806280016899109 23.38788032531738 3.396430015563965 19.62833023071289 C 4.932549953460693 15.9965295791626 7.131849765777588 12.73462963104248 9.933239936828613 9.933239936828613 C 12.73462963104248 7.131849765777588 15.9965295791626 4.932549953460693 19.62833023071289 3.396430015563965 C 23.38788032531738 1.806280016899109 27.38208961486816 1 31.5 1 C 35.6179084777832 1 39.61212158203125 1.806280016899109 43.37166976928711 3.396430015563965 C 47.00347137451172 4.932549953460693 50.2653694152832 7.131849765777588 53.0667610168457 9.933239936828613 C 55.86814880371094 12.73462963104248 58.06745147705078 15.9965295791626 59.60356903076172 19.62833023071289 C 61.19372177124023 23.38788032531738 62 27.38208961486816 62 31.5 C 62 35.6179084777832 61.19372177124023 39.61212158203125 59.60356903076172 43.37166976928711 C 58.06745147705078 47.00347137451172 55.86814880371094 50.2653694152832 53.0667610168457 53.0667610168457 C 50.2653694152832 55.86814880371094 47.00347137451172 58.06745147705078 43.37166976928711 59.60356903076172 C 39.61212158203125 61.19372177124023 35.6179084777832 62 31.5 62 Z" stroke="none"/><path d="M 31.5 2 C 27.51663970947266 2 23.65349960327148 2.779701232910156 20.01787948608398 4.317440032958984 C 16.50527954101563 5.803138732910156 13.3502197265625 7.93048095703125 10.64035034179688 10.64035034179688 C 7.93048095703125 13.3502197265625 5.803138732910156 16.50527954101563 4.317440032958984 20.01787948608398 C 2.779701232910156 23.65349960327148 2 27.51663970947266 2 31.5 C 2 35.48336029052734 2.779701232910156 39.34650039672852 4.317440032958984 42.98212051391602 C 5.803138732910156 46.49472045898438 7.93048095703125 49.6497802734375 10.64035034179688 52.35964965820313 C 13.3502197265625 55.06951904296875 16.50527954101563 57.19686126708984 20.01787948608398 58.68255996704102 C 23.65349960327148 60.22029876708984 27.51663970947266 61 31.5 61 C 35.48336029052734 61 39.34650039672852 60.22029876708984 42.98212051391602 58.68255996704102 C 46.49472045898438 57.19686126708984 49.6497802734375 55.06951904296875 52.35964965820313 52.35964965820313 C 55.06951904296875 49.6497802734375 57.19686126708984 46.49472045898438 58.68255996704102 42.98212051391602 C 60.22029876708984 39.34650039672852 61 35.48336029052734 61 31.5 C 61 27.51663970947266 60.22029876708984 23.65349960327148 58.68255996704102 20.01787948608398 C 57.19686126708984 16.50527954101563 55.06951904296875 13.3502197265625 52.35964965820313 10.64035034179688 C 49.6497802734375 7.93048095703125 46.49472045898438 5.803138732910156 42.98212051391602 4.317440032958984 C 39.34650039672852 2.779701232910156 35.48336029052734 2 31.5 2 M 31.5 0 C 48.89696884155273 0 63 14.10303115844727 63 31.5 C 63 48.89696884155273 48.89696884155273 63 31.5 63 C 14.10303115844727 63 0 48.89696884155273 0 31.5 C 0 14.10303115844727 14.10303115844727 0 31.5 0 Z" stroke="none" fill="#fff"/></g><path d="M24.114,24.166V17.383h5.97a9.287,9.287,0,0,1,1.645.142,4.106,4.106,0,0,1,1.4.508,2.707,2.707,0,0,1,.975,1.015,3.372,3.372,0,0,1,.366,1.665,3.068,3.068,0,0,1-1.1,2.64,4.584,4.584,0,0,1-2.8.812ZM17.737,12.428v29H31.79a14.826,14.826,0,0,0,3.8-.487,10.157,10.157,0,0,0,3.29-1.5,7.4,7.4,0,0,0,2.295-2.62,7.98,7.98,0,0,0,.853-3.8,8.036,8.036,0,0,0-1.32-4.65,6.971,6.971,0,0,0-4-2.7,7.228,7.228,0,0,0,2.945-2.4,6.353,6.353,0,0,0,.995-3.655,7.779,7.779,0,0,0-.67-3.412,5.573,5.573,0,0,0-1.889-2.214,8.152,8.152,0,0,0-2.924-1.2,18.054,18.054,0,0,0-3.777-.366H17.737Zm6.377,24.045V28.512h6.945a5.373,5.373,0,0,1,3.331.955,3.75,3.75,0,0,1,1.259,3.188,3.986,3.986,0,0,1-.386,1.868,3.065,3.065,0,0,1-1.036,1.158,4.386,4.386,0,0,1-1.5.609,8.527,8.527,0,0,1-1.787.183H24.114Z" transform="translate(3.263 4.572)" fill="#fff"/></svg>