<svg xmlns="http://www.w3.org/2000/svg" width="30" height="30" viewBox="0 0 30 30"><g transform="translate(-17.539 -33.334)"><g transform="translate(17.539 33.334)"><g transform="translate(0 0)"><circle cx="15" cy="15" r="15" fill="#009b3a"/><path d="M73.024,62.787,59.773,72.8,46.521,62.787l13.252-10.01Z" transform="translate(-44.774 -47.871)" fill="#fedf01"/><path d="M175.432,123.826a5.811,5.811,0,1,0-5.811,5.811,5.811,5.811,0,0,0,5.811-5.811" transform="translate(-154.644 -108.981)" fill="#002776"/><path d="M165.653,166.767a5.765,5.765,0,0,0-.6,1.82c3.594-.261,8.473,1.7,10.567,4.135a5.809,5.809,0,0,0,.794-1.8,16.631,16.631,0,0,0-10.756-4.152" transform="translate(-155.803 -154.649)" fill="#cbe9d4"/><g transform="translate(9.601 15.126)"><path d="M171.566,215.214h-.9v-.9h.9Z" transform="translate(-170.666 -214.314)" fill="#88c9f9"/><path d="M185.789,243.657h-.9v-.9h.9Z" transform="translate(-183.989 -240.958)" fill="#88c9f9"/></g><g transform="translate(12.3 13.326)"><path d="M214.232,215.214h-.9v-.9h.9Z" transform="translate(-213.332 -212.514)" fill="#55acee"/><path d="M242.677,229.436h-.9v-.9h.9Z" transform="translate(-239.978 -225.837)" fill="#55acee"/><path d="M299.566,257.88h-.9v-.9h.9Z" transform="translate(-293.268 -252.481)" fill="#55acee"/><path d="M256.9,272.1H256v-.9h.9Z" transform="translate(-253.301 -265.804)" fill="#55acee"/><path d="M299.566,186.769h-.9v-.9h.9Z" transform="translate(-293.268 -185.869)" fill="#55acee"/></g><path d="M271.122,243.657h-.9v-.9h.9Z" transform="translate(-254.323 -225.832)" fill="#3b88c3"/></g></g></g></svg>