<svg xmlns="http://www.w3.org/2000/svg" width="63" height="63" viewBox="0 0 63 63"><g fill="#fff" stroke="#264de4" stroke-width="2"><circle cx="31.5" cy="31.5" r="31.5" stroke="none"/><circle cx="31.5" cy="31.5" r="30.5" fill="none"/></g><g transform="translate(15.263 8)"><path d="M22.688,46.042,8.994,42.24,5.942,8.011H39.476L36.421,42.235Z" transform="translate(-5.942 1.291)" fill="#264de4"/><path d="M31.478,39.667l2.611-29.246H20.382V42.744Z" transform="translate(-3.614 1.68)" fill="#2965f1"/><path d="M11.967,21.354l.376,4.2h9.395v-4.2Z" transform="translate(-4.971 3.442)" fill="#ebebeb"/><path d="M11.316,14.037l.382,4.2H21.843v-4.2H11.316Z" transform="translate(-5.076 2.262)" fill="#ebebeb"/><path d="M21.66,31.383l-.018,0-4.675-1.262-.3-3.348H12.453l.588,6.592,8.6,2.387.019-.005Z" transform="translate(-4.893 4.316)" fill="#ebebeb"/><path d="M12.738,0h5.085V2.126H14.865V4.253h2.958V6.379H12.738Z" transform="translate(-4.846)"/><path d="M17.993,0h5.085V1.849H20.119v.37h2.958V6.471H17.993V4.53h2.958V4.16H17.993Z" transform="translate(-3.999)"/><path d="M23.248,0h5.085V1.849H25.374v.37h2.958V6.471H23.248V4.53h2.958V4.16H23.248Z" transform="translate(-3.153)"/><path d="M30.127,22.534l.758-8.5H20.369v4.2h5.916l-.382,4.3H20.369v4.2h5.17l-.487,5.445L20.369,33.44v4.368l8.606-2.385.063-.709.987-11.052Z" transform="translate(-3.617 2.262)" fill="#fff"/></g></svg>