<svg xmlns="http://www.w3.org/2000/svg" width="63" height="63" viewBox="0 0 63 63"><g fill="#474747" stroke="#67d470" stroke-width="2"><circle cx="31.5" cy="31.5" r="31.5" stroke="none"/><circle cx="31.5" cy="31.5" r="30.5" fill="none"/></g><g transform="translate(9.479 9.75)"><path d="M5.787,74.494A27.138,27.138,0,0,0,.6,78.506c-.661.783-.856-.44-.171-2.471a13.463,13.463,0,0,1,4.209-5.775,43.874,43.874,0,0,1,6.117-3.621A60.612,60.612,0,0,1,20.1,63.434c.367-.1-.44.612-.563,1C18.9,66.3,6.2,74.273,6.2,74.273Z" transform="translate(0 -55.806)" fill="#010101"/><path d="M164.833,275.488c.22,1.321.025,1.419-1.346,1.591a3.557,3.557,0,0,1-2.74-.685,1.545,1.545,0,0,1-.073-1.786,4.04,4.04,0,0,0,.563-1.125,2.739,2.739,0,0,1,.318-.832c.1-.171.122-.343.147-1.542s0-3.45.122-4.4c.122-.979,4.355.44,4.355.44s-1,2.5-1.272,3.107a6.157,6.157,0,0,0-.245,2.031,1.639,1.639,0,0,1-.171.758c-.073.024.245.661.1,1.028A4.761,4.761,0,0,0,164.833,275.488Z" transform="translate(-141.16 -234.362)" fill="#010101"/><path d="M210.074,3.713a8.075,8.075,0,0,1,.2-3.059c.612-.832,3.842-.93,4.527.049a4.253,4.253,0,0,1,.22,2.129c-.049.661-.22,2.08-.245,2.545-.024.343-3.572.881-4.355-.049A5.453,5.453,0,0,1,210.074,3.713Z" transform="translate(-184.786 0)" fill="#010101"/><path d="M225.151,268.449a15.784,15.784,0,0,0,3.4,1.664c.758.392.563,1.15-.71,1.37a24,24,0,0,1-3.719-.2c-1.077,0-3.475.122-4.111-.318a1.343,1.343,0,0,1-.416-1.468,6.081,6.081,0,0,0,.538-2.716,9.2,9.2,0,0,0-.71-2.422c-.367-.905-.636-3.132-.293-3.254s.245,0,.685.1a7.124,7.124,0,0,0,1.884.245,14.428,14.428,0,0,0,2.374-.22c.367-.073.661-.147.538.612a24.434,24.434,0,0,0-.514,3.279,18.374,18.374,0,0,0,.049,2.594C224.221,267.936,224.76,268.18,225.151,268.449Z" transform="translate(-192.669 -229.697)" fill="#010101"/><g transform="translate(0.6 0.361)"><g transform="translate(0 5.734)"><path d="M49.739,50.8c-2.691,2.325-7.9,2.961-15.635,5.946-1.982.758-7.267,3.034-8.54,5.408,4.282-2.471,5.872.93,6.215,4.429.318,3.279,1.957,4.992,6.166,4.894,4.331-.1,5.652,2.422,6.851,5.383C47.121,65.53,50.84,63.328,53.238,61.4,58.327,57.26,52.063,49.968,49.739,50.8Z" transform="translate(-23.093 -50.735)" fill="#8ac640"/><path d="M31.637,51.28c-6.46,2.251-12.846,2.814-20.358,7.438-1.786,1.1-5.554,3.6-6.288,8.368,2.74-3.034,9.078-6.851,16.834-9.274,3.915-1.223,6.778-2.031,10.252-3.377C31.833,52.87,31.833,52.259,31.637,51.28Z" transform="translate(-4.991 -51.214)" fill="#8ac640"/></g><path d="M265.329,153.391a4.094,4.094,0,0,1-1.395,2.1s-.685.245-2.055-.514a1.763,1.763,0,0,1-.661-1.223,1.142,1.142,0,0,1,.391-.856s.392-.661.856-.636,1.248.1,1.493-.122C264.179,151.9,265.378,152.584,265.329,153.391Z" transform="translate(-230.437 -134.184)" fill="#010101"/><path d="M200.874,32.9a19.1,19.1,0,0,1-.269,2.031c-.024.147-.758.22-1.3.441,1.028,2.936,7.218,2.912,8.026,1.468a10.659,10.659,0,0,0-1.541-.832c-.367-.147-.343-.122-.367-.808s-.073-1.957-.122-2.3S201.461,32.556,200.874,32.9Z" transform="translate(-175.965 -29.082)" fill="#010101"/><path d="M213.123,33.233s0,.71-.073,1.395a5.761,5.761,0,0,1-.1.758,5.117,5.117,0,0,1,1.077,2.031c1.175,2.618,3.891,1.321,5.016.073a9.456,9.456,0,0,0-1.762-.93c-.367-.147-.2-.465-.22-1.15s-.122-1.688-.171-2.055S213.711,32.891,213.123,33.233Z" transform="translate(-187.97 -29.416)" fill="#f0efef"/><path d="M211.628,32.9s-.025.441-.1.954c.318.318.734.758,1.052,1.028.22.2.758.171,1.248.171a2.94,2.94,0,0,0,1-.049,5.111,5.111,0,0,0,1.272-1.052c-.024-.44-.049-.856-.073-1.052C216.008,32.556,212.215,32.556,211.628,32.9Z" transform="translate(-186.719 -29.082)" fill="#010101"/><path d="M214.3,13.342a5.418,5.418,0,0,1-.905-.073,1.44,1.44,0,0,1-.343-.147c-.171-.122-.343-.269-.538-.416-.392-.294-.416-.465-.416-.538a11.383,11.383,0,0,0-.049-2.838s-.171-.661.758-.832a12.024,12.024,0,0,1,1.493-.2,7.824,7.824,0,0,1,1.493.2c.93.171.758.832.758.832a11.386,11.386,0,0,0-.049,2.838c0,.073-.024.245-.416.538a2.889,2.889,0,0,1-.881.563A5.42,5.42,0,0,1,214.3,13.342Z" transform="translate(-187.165 -7.666)" fill="#010101"/><path d="M213,3.006a2.542,2.542,0,0,0-2.4.93,8.684,8.684,0,0,0,.147,2.422h.22a2.927,2.927,0,0,1-.122-.954c.025-.514.122-.489.049-.612-.1-.147-.294-.392.147-.636s1.125.2,1.957.22c.832-.025,1.541-.465,1.982-.22s.245.489.147.636.024.1.049.612a2.93,2.93,0,0,1-.122.954h.22a12.906,12.906,0,0,0,.171-2.373C215.026,3.446,214.61,3.03,213,3.006Z" transform="translate(-185.86 -3.006)" fill="#010101"/><path d="M265.507,152.639a4.041,4.041,0,0,1-1.37,2.006c-.2-.1-.171-.245-.343-.465-.049-.073-.22-.122-.294-.2s-.049-.2-.171-.294c-.1-.1-.171-.024-.269-.1-.1-.1-.122-.22-.2-.293-.049-.049-.245-.073-.294-.122-.122-.122-1.2-.343-1.15-.587a2.131,2.131,0,0,1,.294-.636s.465-.685.93-.661.905.122,1.15-.1C264.064,150.951,265.581,151.856,265.507,152.639Z" transform="translate(-230.615 -133.358)" fill="#010101"/><path d="M266.483,73a3.045,3.045,0,0,1,2.594.636,2.78,2.78,0,0,1,.661,3.083,2.371,2.371,0,0,1,.392,2.251c1.615,1.37.905,3.475-.538,4.869a1.9,1.9,0,0,0-1.713-1.346c.049-.489-1.272-.881-.661-2.153-.93-.22-.905-.856-1.052-1.639C266.042,77.92,266.483,73,266.483,73Z" transform="translate(-234.772 -64.536)" fill="#010101"/><path d="M263.473,76.487s1.786-.905,2.838.122a2.453,2.453,0,0,1,.44,2.936,2.366,2.366,0,0,1,.514,2.3c-.073.245-.612.245-1,.881.979-.563,1.591-.416,1.811.293A3.672,3.672,0,0,1,267,86.176c0-.025-.025-.049-.025-.073a3.733,3.733,0,0,1-.954,1.86.923.923,0,0,1-1.077.245,6.077,6.077,0,0,1-1.346-.71c-.391-.22-.171-.489-.171-.71a.5.5,0,0,1,.122-.22,1.97,1.97,0,0,1,.416-.538,1.025,1.025,0,0,1,.783-.416,1.894,1.894,0,0,0,1.077-.2h0c0-.856-.979-.881-.636-2.349.025-.073.147-.2.538-.245a2.081,2.081,0,0,1-1.272-.538,1.806,1.806,0,0,1-.587-1.052C263.718,80.475,263.473,76.487,263.473,76.487Z" transform="translate(-232.325 -67.336)" fill="#f0efef"/><path d="M167.637,54.7a4.425,4.425,0,0,0-2.349-1.566c-.416-.122-.685.22-1.1.465-.122-.073-.661-.318-.954-.147a6.571,6.571,0,0,1-.783.465,1.324,1.324,0,0,0-.856.049,2.425,2.425,0,0,0-1.272.954c-.294,1.052,5.187.269,5.187.269Z" transform="translate(-141.651 -47.085)" fill="#010101"/><path d="M169.652,56.664c-.783-.269-.661-1.174-2.4-1.321-.343-.025-.563.245-.807.416a1.529,1.529,0,0,1,.318.514,2.032,2.032,0,0,0-1-.636c-.367-.073-.612.2-1,.392a2.54,2.54,0,0,1,.245.343,1,1,0,0,0-1.052-.122,2.7,2.7,0,0,0-1.395,1.028c-.294,1.052,4.943-.122,4.943-.122Z" transform="translate(-143.617 -49.054)" fill="#8ac640"/><path d="M258.036,62.889s0-.269-.025-.514c0-.049-.2-.171-.2-.22l-.049-.049a.931.931,0,0,1,.685-.1.97.97,0,0,1,.489.514c.563-.2.612.025.881.318.587-.122.661.1,1.028.636a4.338,4.338,0,0,0-1.3.073A2.028,2.028,0,0,1,258.036,62.889Z" transform="translate(-227.402 -54.888)" fill="#010101"/><path d="M259.188,66.374s.147-.122.1-.147c.269-.147.636-.318.807.147.563-.2.636.073.905.367.685-.318.734.073.783.245a9.664,9.664,0,0,0-.979.073A2.264,2.264,0,0,1,259.188,66.374Z" transform="translate(-228.651 -58.495)" fill="#8ac640"/><path d="M177.748,63.5a7.791,7.791,0,0,0,2.569.416c1.174-.1,3.181-.2,4.257.441a4.119,4.119,0,0,1,2.129-.122c1.028.269,2.912,2.031,2.349,3.89a1.442,1.442,0,0,1-.734.44,2.533,2.533,0,0,1-.147,1.517,7.8,7.8,0,0,0-1.126,3.695h0c-.024.294-.073.905-.122,1.2-1.909-.073-4.845-.783-7.732-.734.024-.318.049-.514.073-.832h.073c-.147-.807-.2-1.224-.343-1.835a8.1,8.1,0,0,1-2.74-2.569C175.448,67.709,177.748,63.5,177.748,63.5Z" transform="translate(-155.53 -56.234)" fill="#010101"/><path d="M228.585,173.492s1.517,5.432-.269,7.708a3.249,3.249,0,0,1-.343,2.178c-.1.489-.22.93-.294,1.419-.318,2.031-.857,2.887-1,6.142l-1.468-.024a15.327,15.327,0,0,0-.685-3.6c-.293-.709-1.444-1.664-1.395-2.618.049-.734.2-1.346,1.444-2.325.1-1.419-1.321-2.765-1.1-8.05Z" transform="translate(-196.923 -153.012)" fill="#010101"/><path d="M230.486,171.658c.391,2.5,1.3,6.191-.343,8a3.69,3.69,0,0,1,.024,1.395,5.706,5.706,0,0,1-.269.954,8.784,8.784,0,0,0-.416,1.958,34.343,34.343,0,0,0-.465,5.383l-1.468-.025a15.325,15.325,0,0,0-.685-3.6,6.389,6.389,0,0,1-.954-2.276c-.049-.734.465-2.2,1.688-2.153-.073-2.961-1.444-2.373-1.811-8.54Z" transform="translate(-199.264 -151.398)" fill="#f0efef"/><path d="M181.8,63.5a5.793,5.793,0,0,0,1.125.22,14.439,14.439,0,0,0,1.786-.025,7.23,7.23,0,0,1,3.939.416,3.79,3.79,0,0,1,1.272-.147,6.61,6.61,0,0,1,.93.367c1.077.269,2.1,2.055,1.639,3.67-.049.122-.392,0-.783.122a3.242,3.242,0,0,1-.269,1.957,7.072,7.072,0,0,0-.856,3.964c-2.569-.122-3.719-.294-6.264-.416a14.7,14.7,0,0,1-.391-2.276,2.438,2.438,0,0,0,.807-.612,1.875,1.875,0,0,1-1.468-.171,7.3,7.3,0,0,1-1.615-1.541c-.049-.049-.318.758-.93.783-.22-.318.71-1.224.538-1.566C180.654,67,181.8,63.5,181.8,63.5Z" transform="translate(-159.586 -56.234)" fill="#f0efef"/><path d="M206.486,150.625s.049.881.049,1.1c0,.245.2.979.22,1.321a5.506,5.506,0,0,1-3.572,1.909c-2.1.44-4.894-2.863-4.894-2.863.073-.318.318-1.248.489-1.737a.776.776,0,0,0,.073-.22C199.072,149.817,206.486,150.625,206.486,150.625Z" transform="translate(-175.069 -132.396)" fill="#010101"/><path d="M212.041,147.12a7.057,7.057,0,0,0,.171,1.444,12.492,12.492,0,0,1,.318,1.639c0,1.419-1.86,1.174-3.426,1.223-2.1.441-3.89-2.863-3.89-2.863a13.979,13.979,0,0,1,.465-1.737h0c.024-.294.073-.661.1-.832a62.526,62.526,0,0,1,6.313.293,2.122,2.122,0,0,1-.049.832Z" transform="translate(-181.162 -128.818)" fill="#f0efef"/><path d="M181.734,165.6s-1.3-2.887-5.187-2.031c-.93,2.618-2.178,5.628-1.37,8.882-.808,1.1-1.737,1.713-1.737,3.744a13.284,13.284,0,0,0,.1,2.374l2.863.147a8.549,8.549,0,0,0,1.3-2.5,5.309,5.309,0,0,0,.122-1.786,1.949,1.949,0,0,0,.563-1.15,5.569,5.569,0,0,0,2.2-2.52C181.342,169.15,181.147,167.755,181.734,165.6Z" transform="translate(-153.204 -144.143)" fill="#010101"/><path d="M186.968,164.989c-.073-.269-1.052-2.912-4.673-2.129-2.129,5.677-1.346,8.026-1.028,9.053-1.444,1.835-2.1,2.227-1.811,5.946h1.909a5.683,5.683,0,0,0,1.125-3.744c0-.073-.269.147-.465.391.147-.758.563-.905.881-1.37a1.45,1.45,0,0,0,.269-.881,6.342,6.342,0,0,0,2.716-4.086A11.693,11.693,0,0,1,186.968,164.989Z" transform="translate(-158.438 -143.53)" fill="#f0efef"/><path d="M181.822,148.846a5.145,5.145,0,0,1,1.248.22,1.292,1.292,0,0,1,.783.563c.22.245.758.612.661.979-.049.2-.171.245-.343.416-.073.073-.612.661-.734.734-.073.049-.171.122-.245.171l-.367.245a1.148,1.148,0,0,1-.685.171,1.613,1.613,0,0,1-1-.44s-.049-.2.049-.294a3.528,3.528,0,0,1-.661-.734,1.24,1.24,0,0,1-.049-.93C180.525,149.727,181.48,149.115,181.822,148.846Z" transform="translate(-159.336 -131.327)" fill="#010101"/><path d="M165.91,339.327l-.073.612s-.22.269-1.86.245c-1.664-.025-2.1-.538-2.251-.808l-.1-.636s.318-.465.391-.465c.538.049,2.373.783,3.646.979C165.787,339.254,165.812,339.3,165.91,339.327Z" transform="translate(-142.812 -298)" fill="#010101"/><path d="M226.626,336.286c0,.269-.024.269-.024.538a4.7,4.7,0,0,0,2.422.318c2.031-.049,3.915.612,6.215.22l.025-.44-.22-.024-8.148-.661Z" transform="translate(-199.98 -296.207)" fill="#010101"/><path d="M233.741,336.6h.612c1.321-.049,2.569.245,3.915.318.71-.025,1.59-.2,1.517-.71l-6.949-.587C232.42,336.091,232.738,336.482,233.741,336.6Z" transform="translate(-205.309 -295.669)" fill="#010101"/><path d="M163.422,258.022a7.2,7.2,0,0,0,4.135.905,5.3,5.3,0,0,1-1.1,2.961,7.929,7.929,0,0,0-1.1,3.891c.025.392.245.734-.049,1.248a14.034,14.034,0,0,0,.685,1.346c.2.392.294.832-1,.856-1.321.024-3.45-.122-3.156-1.15.147-.538.563-1.1.612-1.321a2.374,2.374,0,0,1,.465-1.321,9.5,9.5,0,0,0,.171-3.5A8.3,8.3,0,0,1,163.422,258.022Z" transform="translate(-142.967 -227.387)" fill="#010101"/><path d="M138.1,64.75c1.737-2.325.269-4.184-2.52-3.621a2.661,2.661,0,0,0-2.325,2.422c-.367.049-1.2.1-1.615,1.615a3.446,3.446,0,0,1-1.052,1.982c-.367.416.025,1.272.294,1.884.905,2.1,3.695,2.3,5.579,3.89a2.715,2.715,0,0,0,1.493-1.346c-1.59-1.884-1.248-2.618-1.884-3.6A3.056,3.056,0,0,0,138.1,64.75Z" transform="translate(-115.37 -54.057)" fill="#010101"/><path d="M144.551,66.71c.1-.147.269-.465.343-.587.025-.024.294.44.318.416.661-1.077.832-2.643.073-2.79a4.337,4.337,0,0,1-.758-.2,3.047,3.047,0,0,0-1.713-.024,2.4,2.4,0,0,0-2.153,2.1,2.011,2.011,0,0,1,.979,1.2c-.367-.514-1-1.077-1.762-.587-.808.514-.392,1.688-1.468,2.912-.367.416-.318.905.073,1.884.636,1.542,3.646,2.373,5.285,3.842a2.214,2.214,0,0,0,.856-.856,8.7,8.7,0,0,1-1.86-3.01,4.939,4.939,0,0,0-1.688-2.1,4.459,4.459,0,0,1,.979.489.974.974,0,0,0,.832.073A3.233,3.233,0,0,0,144.551,66.71Z" transform="translate(-122.163 -56.164)" fill="#f0efef"/><path d="M204.693,86.885c-.073.93-.758.465-1.125.294a5.685,5.685,0,0,0-2.325-.538,12.324,12.324,0,0,0-2.912.318c-1.321.367-1.713.343-2.3.049a17.526,17.526,0,0,1-1.615-1.1.872.872,0,0,0,.22.563,4.515,4.515,0,0,0,1.982,1.2,2.155,2.155,0,0,0,1.248-.049,8.31,8.31,0,0,1,6.411.538c.1.049.44-.1.587-.318C205.06,87.521,204.693,86.885,204.693,86.885Z" transform="translate(-171.66 -75.947)" fill="#010101"/><path d="M187.291,171.658a4.734,4.734,0,0,1,.709.416.541.541,0,0,1-.318-.1,3.458,3.458,0,0,1-.392-.318Z" transform="translate(-165.392 -151.398)" fill="#0a1825"/><path d="M218.736,5.654c-.073-.22-.612-.612-1.86-.612-1.346,0-1.737.416-1.762.636,0,.073-.1.857-.122,1.174,0,0,0,.391.024.979.025.391.122.612.171,1.126a2.768,2.768,0,0,0,.465,1.321,1.127,1.127,0,0,0,.343.171,5.007,5.007,0,0,0,1.811,0,1.337,1.337,0,0,0,.685-.954c.1-.514.2-.881.22-1.2.049-.318.073-1.028.1-1.224A5.14,5.14,0,0,0,218.736,5.654Z" transform="translate(-189.765 -4.797)" fill="#f0efef"/><path d="M223.4,261.892s1.3.563,4.5.073c0,0-.905,4.551-.489,6.827,0,0,.416.587,3.5,1.713,0,0,1.37.343,1.321,1.028,0,0,.049.147-1.615.1s-3.23-.343-4.331-.343-2.276.049-2.471-.269c-.22-.294.049-1.052.367-1.493.343-.465.245-.807.22-1.639C224.332,265.709,222.668,263.458,223.4,261.892Z" transform="translate(-197.001 -230.793)" fill="#010101"/><path d="M222.053,265.263a4.255,4.255,0,0,0,.269,2.08,10.728,10.728,0,0,1,.905,2.936c.122,1.468.147,1.664-.269,2.52s-.538,1.639.905,1.664a23.529,23.529,0,0,1,3.695.2,8.409,8.409,0,0,0,2.789.171c.808-.122.979-.392.636-.636a18.174,18.174,0,0,1-2.373-1c-.587-.44-2.251-1.174-2.275-1.37a25.254,25.254,0,0,1,.024-3.841c.122-.783.294-1.909.343-2.2s.294-.587-.122-.489a14.161,14.161,0,0,1-3.156.245A6.189,6.189,0,0,1,222.053,265.263Z" transform="translate(-195.921 -233.747)" fill="#8ac640"/><path d="M226.049,328.294a3.914,3.914,0,0,0,1.493.343,2.276,2.276,0,0,0,.1,1.3c.269.489-1.957.2-1.957.2l-.1-1.737Z" transform="translate(-199.085 -289.218)" fill="#010101" opacity="0.3"/><path d="M282.879,334.876a.611.611,0,0,0,.343-.979c-.343-.416-.636-.489-.2-.514a8.141,8.141,0,0,1,2.055.954l-.832.758Z" transform="translate(-249.43 -293.696)" fill="#010101" opacity="0.3"/><path d="M221.559,271.739a6.629,6.629,0,0,0,2.153.22,9.995,9.995,0,0,0,2.545-.367c.709-.245.416.269.416.269l-.392.367a6.946,6.946,0,0,1-2.447.343,8.544,8.544,0,0,1-2.325-.22Z" transform="translate(-195.5 -239.269)" fill="#010101" opacity="0.3"/><path d="M222.324,282.836a6.629,6.629,0,0,0,2.153.22,8.116,8.116,0,0,0,2.422-.294c.294-.1.122.318.122.318l-.122.22a7.537,7.537,0,0,1-2.447.318,7.432,7.432,0,0,1-2.1-.171Z" transform="translate(-196.216 -249.143)" fill="#010101" opacity="0.3"/><path d="M223.4,261.892a9.192,9.192,0,0,0,4.527.245s-.93,4.38-.514,6.631c0,0,.416.587,3.5,1.713,0,0,1.37.343,1.321,1.028,0,0,.049.147-1.615.1s-3.23-.343-4.331-.343-2.276.049-2.471-.269c-.22-.294.049-1.052.367-1.493.343-.465.245-.807.22-1.639C224.332,265.709,222.668,263.458,223.4,261.892Z" transform="translate(-197.001 -230.793)" fill="rgba(1,1,1,0)"/><path d="M223.4,261.892a9.362,9.362,0,0,0,4.527.22s-.93,4.4-.514,6.655c0,0,.416.587,3.5,1.713,0,0,1.37.343,1.321,1.028,0,0,.049.147-1.615.1s-3.254-.514-4.331-.343c-1.15.2-2.276.122-2.471-.269a1.828,1.828,0,0,1,.367-1.493c.343-.465.245-.807.22-1.639C224.332,265.709,222.668,263.458,223.4,261.892Z" transform="translate(-197.001 -230.793)" fill="rgba(1,1,1,0)"/><path d="M208.881,140.7a8.271,8.271,0,0,0,2.961,1.321,14.945,14.945,0,0,0,3.6-.073l-.049.343a13.537,13.537,0,0,1-4.624-.147c-2.006-.538-1.786-.661-1.786-.661Z" transform="translate(-184.388 -124.158)" fill="#010101"/><g transform="translate(19.167 30.904)"><path d="M174.865,266.771a4.083,4.083,0,0,0,2.031.269,21.277,21.277,0,0,1,.269-2.447,14.572,14.572,0,0,0,1.321-3.768,15.332,15.332,0,0,1-2.814-.563C174.89,262.66,175.159,264.715,174.865,266.771Z" transform="translate(-173.626 -260.262)" fill="#f0efef"/><path d="M167.426,319.877c.171.049.294.245.343.122.1-.22-.171-.636-.2-.93v-.025a3.227,3.227,0,0,0-1.615-.122c-.171.318-.44.269-.538.905-.049.318.343.049.709.024-.661.44-1.419,1-1.541,1.493-.147.685.1.881.832,1.248a7.9,7.9,0,0,0,1.982.147c.661-.122.783-.44.587-.881A8.881,8.881,0,0,1,167.426,319.877Z" transform="translate(-164.548 -311.827)" fill="#f0efef"/></g><path d="M189.514,62.686a4.327,4.327,0,0,0,2.349.318c.1,0,1.077-.171,1.126-.147.1.024.1.1.1.1a3.176,3.176,0,0,1-1.2.245,5.237,5.237,0,0,1-2.227-.245C189.049,62.686,189.514,62.686,189.514,62.686Z" transform="translate(-167.199 -55.517)" fill="#010101"/><path d="M258.573,66.511a6.49,6.49,0,0,1,1.517.905c.367.392.171.367.1.269a5.835,5.835,0,0,0-1.15-.758,2.109,2.109,0,0,1-.661-.391C258.377,66.487,258.573,66.511,258.573,66.511Z" transform="translate(-227.938 -58.877)" fill="#010101"/><path d="M184.424,151.027a2.389,2.389,0,0,1,1.909.612c.245.245.636.514.587.758a1.268,1.268,0,0,1-.269.416c-.073.1-.294.318-.367.391-.1.073-.44.343-.514.391s-.171.171-.245.2a.848.848,0,0,1-.758-.1c-.245-.122.049-.147-.22-.343-.661-.465-1.028-.783-.759-1.688C183.813,151.492,184.082,151.3,184.424,151.027Z" transform="translate(-162.231 -133.239)" fill="#f0efef"/></g><path d="M68.975,102.655c-2.2.881-7.806,3.67-9.4,4.527h0c1.321.832,1.933,2.838,2.129,4.869.024.2.049.367.073.563a2.35,2.35,0,0,0,.073.367.147.147,0,0,0,.025.1c1.444-3.939,6.606-8.1,6.8-8.417.1-.147-.122-.783.22-1.395C69.342,102.484,70.2,102.141,68.975,102.655Z" transform="translate(-52.422 -90.109)" fill="#010101" opacity="0.4"/><path d="M134.966,191.391c1.125-2.251,1.15-4.4,1.125-6.925,0-1.052.758-2.545.367-2.129-1.468,1.639-5.163,4.722-7.83,4.894C132.373,187.109,133.841,188.993,134.966,191.391Z" transform="translate(-113.177 -160.371)" fill="#010101" opacity="0.4"/><path d="M41.654,111.048A79.638,79.638,0,0,1,52,105.665c1.737-.563,1.2-1.224,1.2-1.224a107.2,107.2,0,0,0-11.255,5.652" transform="translate(-36.65 -91.895)" fill="#010101"/><path d="M189.758,87.669c-.563-.22-1,.441-.856,1.077s1.468,1.346,1.395,3.67a6.658,6.658,0,0,1-.465,2.691l-.93-1.174a12.22,12.22,0,0,0-.465-3.034c-.318-.391-1.321-1.1-1.713-1.468s.44-.856.391-1.542a7.074,7.074,0,0,1,.416-1.982Z" transform="translate(-164.201 -75.587)" fill="#010101" opacity="0.4"/><path d="M226.009,187.342a42.682,42.682,0,0,0,.538,5.848c.171,1.3.391,1.395,0,1.982-.391.563-.905,1.493-.905,1.493l-1.688-.147a16.633,16.633,0,0,0,1.419-2.031,17.853,17.853,0,0,0-.685-2.74Z" transform="translate(-197.051 -164.837)" fill="#010101" opacity="0.4"/><path d="M213.974,43.328a2.162,2.162,0,0,0,1.419,1.321c.391.147,1.933.343,2.545-.343.269-.318.1-1.174.1-1.174l-1.395,1.125-1.884-.342-.22-.563Z" transform="translate(-188.27 -37.951)" fill="#010101" opacity="0.4"/><path d="M213.762,58.816a9.954,9.954,0,0,0,2.667.881c.44.1,1.15-.465,1.493-.612a1.522,1.522,0,0,1,1.737.392c.073.073-.171.391-.171.391a2.818,2.818,0,0,1-.367-.122,1.106,1.106,0,0,0-.661-.147c-1.223.147-1.419.563-2.5.318a6.931,6.931,0,0,0-2.4-.391" transform="translate(-187.911 -51.751)" fill="#8ac640" stroke="#010101" stroke-linejoin="round" stroke-miterlimit="10" stroke-width="1.586"/><path d="M213.006,59.427a21.107,21.107,0,0,0,2.814.808c.44.1,1.15-.343,1.493-.563a1.435,1.435,0,0,1,1.762.343c.245.269.343.44.343.514,0,.1-.294,0-.294,0a3.178,3.178,0,0,1-.514-.2,1.2,1.2,0,0,0-.685-.22c-1.223.147-1.468.563-2.52.318a6.347,6.347,0,0,0-2.447-.392" transform="translate(-187.375 -52.288)" fill="#8ac640"/><path d="M73.363,157.911c-.049-.049.049-.1,0-.1a1.411,1.411,0,0,1-1-.587c-1.052-1.517-2.594-2.52-5.383-2.447-4.184.1-5.848-1.615-6.166-4.894a7.406,7.406,0,0,0-1.664-4.5l-.587.367c1.125.979,1.493,2.569,1.737,4.747.391,3.279,3.034,4.8,6.117,4.845,3.205.049,4.355.71,5.554,2.325a1.922,1.922,0,0,0,1.174.758Z" transform="translate(-51.524 -127.918)" fill="#010101"/><path d="M270.387,118.7a2.782,2.782,0,0,0,.661,1.419c.171.171.2.22.049.22s-1.224-.049-1.224-.049l-.294-.514Z" transform="translate(-237.196 -104.441)" fill="#010101" opacity="0.4"/></g></svg>