<svg xmlns="http://www.w3.org/2000/svg" width="63" height="63" viewBox="0 0 63 63"><g fill="#fff" stroke="#e44d26" stroke-width="2"><ellipse cx="31.5" cy="31.5" rx="31.5" ry="31.5" stroke="none"/><ellipse cx="31.5" cy="31.5" rx="30.5" ry="30.5" fill="none"/></g><g transform="translate(14.912 8)"><path d="M39.24,8.011,36.206,41.994,22.57,45.774,8.972,42,5.942,8.011Z" transform="translate(-5.942 1.226)" fill="#e44d26"/><path d="M20.382,42.516,31.4,39.461l2.592-29.04H20.382Z" transform="translate(-3.733 1.595)" fill="#f16529"/><path d="M15.872,18.205h5.9V14.037H11.316l.1,1.118L12.44,26.642h9.328V22.474H16.253Z" transform="translate(-5.12 2.148)" fill="#ebebeb"/><path d="M16.637,26.777H12.453l.584,6.545,8.539,2.37.019-.005V31.351l-.018,0L16.934,30.1Z" transform="translate(-4.946 4.097)" fill="#ebebeb"/><path d="M8.629,0h2.118V2.093h1.938V0H14.8V6.338H12.685V4.216H10.747V6.338H8.629V0Z" transform="translate(-5.531)"/><path d="M16.648,2.1H14.783V0h5.849V2.1H18.766V6.338H16.648V2.1Z" transform="translate(-4.589)"/><path d="M20.661,0H22.87l1.359,2.227L25.586,0H27.8V6.338h-2.11V3.2L24.229,5.45h-.036L22.734,3.2V6.338H20.661V0Z" transform="translate(-3.69)"/><path d="M27.763,0h2.119V4.243h2.979V6.338h-5.1Z" transform="translate(-2.603)"/><path d="M20.369,25.523H25.5l-.484,5.406-4.649,1.255v4.337l8.546-2.368.063-.7.98-10.974.1-1.119h-9.69Z" transform="translate(-3.735 3.267)" fill="#fff"/><path d="M20.369,18.195v.01H30.438l.084-.937.19-2.113.1-1.118H20.369v4.158Z" transform="translate(-3.735 2.148)" fill="#fff"/></g></svg>