<svg xmlns="http://www.w3.org/2000/svg" width="63" height="63" viewBox="0 0 63 63"><g transform="translate(22 1.667)"><g transform="translate(-22 -1.667)" fill="#f7df1e" stroke="#000" stroke-width="2"><circle cx="31.5" cy="31.5" r="31.5" stroke="none"/><circle cx="31.5" cy="31.5" r="30.5" fill="none"/></g><path d="M189.842,305.1c1.182,1.929,2.719,3.348,5.438,3.348,2.284,0,3.743-1.142,3.743-2.719,0-1.89-1.5-2.56-4.014-3.66l-1.378-.591c-3.978-1.695-6.621-3.818-6.621-8.306,0-4.135,3.15-7.282,8.074-7.282,3.505,0,6.025,1.22,7.841,4.414l-4.293,2.756c-.945-1.695-1.965-2.362-3.548-2.362a2.4,2.4,0,0,0-2.638,2.362c0,1.654,1.024,2.323,3.39,3.348l1.378.59c4.684,2.009,7.329,4.056,7.329,8.66,0,4.963-3.9,7.683-9.135,7.683-5.12,0-8.428-2.44-10.046-5.638Zm-19.475.478c.866,1.536,1.654,2.836,3.548,2.836,1.811,0,2.954-.709,2.954-3.464V286.2h5.513v18.82c0,5.708-3.347,8.306-8.232,8.306a8.558,8.558,0,0,1-8.27-5.036Z" transform="translate(-175.433 -270.267)"/></g></svg>