<svg xmlns="http://www.w3.org/2000/svg" width="45" height="45" viewBox="0 0 45 45"><g transform="translate(0.5 0.501)"><circle cx="22" cy="22" r="22" transform="translate(0 -0.001)" fill="none" stroke="#fff" stroke-width="1"/><g transform="translate(10.615 9.399)"><path d="M51.6,38.339v9.07H46.339V38.947c0-2.125-.759-3.576-2.663-3.576a2.876,2.876,0,0,0-2.7,1.923,3.6,3.6,0,0,0-.174,1.282v8.833H35.545s.071-14.332,0-15.816H40.8v2.241c-.011.018-.025.035-.035.052H40.8v-.052a5.221,5.221,0,0,1,4.739-2.613c3.46,0,6.054,2.26,6.054,7.118ZM30.044,23.969a2.74,2.74,0,1,0-.069,5.466h.034a2.741,2.741,0,1,0,.035-5.466Zm-2.663,23.44h5.257V31.593H27.381Z" transform="translate(-27.068 -23.969)" fill="#fff"/></g></g></svg>