<svg xmlns="http://www.w3.org/2000/svg" width="63" height="63" viewBox="0 0 63 63"><g fill="#001d26" stroke="#00c8ff" stroke-width="2"><circle cx="31.5" cy="31.5" r="31.5" stroke="none"/><circle cx="31.5" cy="31.5" r="30.5" fill="none"/></g><path d="M15.225,14.364c0-.175.35-.3.55-.3,1.6-.075,3.975-.125,6.45-.125,6.925,0,9.625,3.8,9.625,8.675,0,6.35-4.6,9.075-10.25,9.075-.95,0-1.275-.05-1.95-.05v9.6c0,.2-.075.3-.3.3H15.525c-.2,0-.3-.075-.3-.3V14.364Zm4.45,13.275c.575.05,1.025.05,2.025.05,2.925,0,5.675-1.025,5.675-5,0-3.175-1.975-4.775-5.3-4.775-1,0-1.95.05-2.4.075v9.65Zm21.5-2.975c-1.975,0-2.65,1-2.65,1.825,0,.9.45,1.525,3.1,2.9,3.925,1.9,5.15,3.725,5.15,6.4,0,4-3.05,6.15-7.175,6.15a10.875,10.875,0,0,1-5.125-1.075c-.175-.075-.2-.2-.2-.4V36.789c0-.25.125-.325.3-.2A9.28,9.28,0,0,0,39.6,38.064c1.975,0,2.8-.825,2.8-1.95,0-.9-.575-1.7-3.1-3-3.55-1.7-5.025-3.425-5.025-6.3,0-3.225,2.525-5.9,6.9-5.9a11.5,11.5,0,0,1,4.475.7.554.554,0,0,1,.25.5v3.425c0,.2-.125.325-.375.25a8.444,8.444,0,0,0-4.35-1.125Z" transform="translate(0.775 4.061)" fill="#00c8ff"/></svg>