<svg xmlns="http://www.w3.org/2000/svg" width="63" height="63" viewBox="0 0 63 63"><g fill="#fff" stroke="#cf649a" stroke-width="2"><circle cx="31.5" cy="31.5" r="31.5" stroke="none"/><circle cx="31.5" cy="31.5" r="30.5" fill="none"/></g><path d="M40.775,20.686a9.786,9.786,0,0,0-4.305,1,8.858,8.858,0,0,1-.965-2.227,6.159,6.159,0,0,1-.083-1.874,15.03,15.03,0,0,1,.566-2.023c-.009-.084-.1-.492-1.058-.5s-1.781.186-1.874.436a10.656,10.656,0,0,0-.4,1.42,33.768,33.768,0,0,1-2.9,5.585,5.7,5.7,0,0,1-.659-1.633A6.159,6.159,0,0,1,29.01,19a15.03,15.03,0,0,1,.566-2.023c-.009-.084-.1-.492-1.058-.5s-1.781.186-1.874.436-.195.844-.4,1.42-2.514,5.734-3.117,7.079c-.306.687-.575,1.234-.77,1.605s-.009.028-.028.065l-.26.492v.009c-.13.232-.269.455-.334.455a3.094,3.094,0,0,1,.019-1.475c.343-1.791,1.178-4.583,1.169-4.685,0-.046.158-.538-.538-.789a.845.845,0,0,0-.974.167c-.056,0-.1.148-.1.148s.752-3.145-1.438-3.145c-1.373,0-3.266,1.494-4.2,2.858-.594.325-1.856,1.011-3.192,1.744-.51.278-1.039.575-1.54.844l-.1-.111c-2.654-2.83-7.562-4.834-7.358-8.638.074-1.382.557-5.029,9.427-9.445C20.168,1.888,25.985,2.881,27,5.089c1.438,3.155-3.108,9.018-10.661,9.863-2.876.325-4.389-.789-4.769-1.206-.4-.436-.455-.455-.6-.371-.241.13-.093.52,0,.752a4.479,4.479,0,0,0,2.728,2.143c1.382.455,4.76.705,8.842-.872,4.574-1.772,8.146-6.69,7.1-10.8C28.565.413,21.625-.96,15.065,1.369A33.023,33.023,0,0,0,3.885,7.78C.266,11.157-.309,14.108-.068,15.332.777,19.7,6.8,22.551,9.21,24.657c-.121.065-.232.13-.334.186-1.206.594-5.8,3-6.949,5.539-1.3,2.876.2,4.945,1.206,5.224a7.414,7.414,0,0,0,7.988-3.238,8.012,8.012,0,0,0,.714-7.376l-.028-.056.946-.557c.612-.362,1.215-.7,1.744-.983a11.551,11.551,0,0,0-.622,3.155,6.578,6.578,0,0,0,1.42,4.583,1.57,1.57,0,0,0,1.141.371c1.021,0,1.485-.844,1.995-1.856.631-1.234,1.188-2.663,1.188-2.663s-.7,3.869,1.206,3.869c.7,0,1.392-.9,1.707-1.364V29.5s.019-.028.056-.093c.074-.111.111-.176.111-.176v-.019c.278-.482.9-1.587,1.828-3.414,1.2-2.357,2.347-5.307,2.347-5.307a16.935,16.935,0,0,0,.455,1.911,18.312,18.312,0,0,0,.993,2.227c-.278.39-.445.612-.445.612l.009.009c-.223.3-.473.612-.733.928a26.967,26.967,0,0,0-2.227,2.793.764.764,0,0,0,.2,1.021,1.857,1.857,0,0,0,1.169.186,5.208,5.208,0,0,0,1.744-.4,6.041,6.041,0,0,0,1.5-.789,3.347,3.347,0,0,0,1.438-2.96,5.951,5.951,0,0,0-.547-2.088c.084-.121.167-.241.251-.371a39.156,39.156,0,0,0,2.6-4.5,16.936,16.936,0,0,0,.455,1.911,13.409,13.409,0,0,0,.844,1.911,8.248,8.248,0,0,0-2.533,3.275c-.547,1.577-.121,2.292.687,2.459a2.47,2.47,0,0,0,1.271-.26,5.756,5.756,0,0,0,1.605-.826,3.629,3.629,0,0,0,1.772-2.932,5.62,5.62,0,0,0-.4-1.735,9.039,9.039,0,0,1,4.6-.529c4.129.482,4.945,3.062,4.788,4.138A2.772,2.772,0,0,1,45.07,28.34c-.288.176-.38.241-.353.371.037.195.167.186.418.148a3.212,3.212,0,0,0,2.245-2.867c.111-2.551-2.31-5.335-6.606-5.307ZM8.932,31.421C7.568,32.915,5.648,33.48,4.831,33c-.881-.51-.538-2.709,1.141-4.3a21.831,21.831,0,0,1,3.22-2.4c.195-.121.492-.3.844-.51a.964.964,0,0,1,.093-.056c.065-.037.139-.084.213-.13A5.918,5.918,0,0,1,8.932,31.421Zm9.974-6.782c-.473,1.16-1.475,4.138-2.078,3.971-.52-.139-.835-2.394-.1-4.621a10.314,10.314,0,0,1,1.624-2.978c.752-.835,1.568-1.113,1.772-.77C20.363,20.686,19.2,23.915,18.906,24.638Zm8.23,3.934c-.2.1-.39.176-.473.121-.065-.037.084-.176.084-.176s1.03-1.1,1.438-1.614c.232-.3.51-.64.807-1.03v.111C28.991,27.32,27.711,28.21,27.136,28.572Zm6.346-1.447c-.148-.111-.13-.455.371-1.531a5.735,5.735,0,0,1,1.41-1.819,2.3,2.3,0,0,1,.139.8A2.611,2.611,0,0,1,33.482,27.125Z" transform="translate(10.366 11.75)" fill="#cf649a"/></svg>