<svg xmlns="http://www.w3.org/2000/svg" width="63" height="63" viewBox="0 0 63 63"><g fill="#2e001f" stroke="#ff26be" stroke-width="2"><circle cx="31.5" cy="31.5" r="31.5" stroke="none"/><circle cx="31.5" cy="31.5" r="30.5" fill="none"/></g><path d="M24.583,28.4l7.166,13.77c.128.2.051.41-.154.41H27.142a.5.5,0,0,1-.537-.333c-1.638-3.378-3.3-6.757-5.016-10.391h-.051c-1.536,3.43-3.225,7.038-4.863,10.417a.491.491,0,0,1-.461.282H11.99c-.256,0-.282-.2-.154-.358l7.013-13.36L12.067,15.32a.207.207,0,0,1,.154-.358h4.4a.4.4,0,0,1,.461.282c1.612,3.378,3.25,6.859,4.786,10.263h.051c1.484-3.378,3.122-6.885,4.709-10.238.128-.2.2-.333.461-.333h4.121c.2,0,.282.154.154.358ZM33,32.571c0-5.963,3.967-10.622,10.263-10.622A11.35,11.35,0,0,1,44.6,22V15.218a.256.256,0,0,1,.256-.256H48.9c.2,0,.256.077.256.2v23.5a18.23,18.23,0,0,0,.128,2.508c0,.154-.051.2-.2.282a15.245,15.245,0,0,1-6.552,1.484C36.97,42.962,33,39.532,33,32.571ZM44.6,26.018a3.871,3.871,0,0,0-1.484-.256c-3.225,0-5.477,2.483-5.477,6.6,0,4.709,2.3,6.6,5.2,6.6a4.829,4.829,0,0,0,1.766-.282Z" transform="translate(1.238 3.064)" fill="#ffd9f2"/></svg>